<svg width="21" height="22" viewBox="0 0 21 22" fill="none" xmlns="http://www.w3.org/2000/svg">
<path d="M20.2941 21.6663C20.2941 21.8303 20.1611 21.9632 19.9976 21.9632C19.8336 21.9632 19.7007 21.8303 19.7007 21.6663C19.7007 16.5849 15.5813 12.4655 10.4999 12.4655C5.41858 12.4655 1.29916 16.5849 1.29916 21.6663C1.29916 21.8303 1.16625 21.9632 1.00228 21.9632C0.838723 21.9632 0.705811 21.8303 0.705811 21.6663C0.705811 16.2571 5.09065 11.8718 10.4999 11.8718C15.9091 11.8718 20.2939 16.2571 20.2939 21.6663H20.2941ZM10.5 11.2784C7.38545 11.2784 4.86099 8.75357 4.86099 5.63944C4.86099 2.52488 7.38545 0 10.5 0C13.6146 0 16.139 2.52488 16.139 5.63944C16.139 8.75357 13.6146 11.2784 10.5 11.2784ZM10.5 10.6847C13.2866 10.6847 15.5457 8.42597 15.5457 5.63937C15.5457 2.85278 13.2867 0.593634 10.5 0.593634C7.71331 0.593634 5.45427 2.85267 5.45427 5.63937C5.45427 8.42597 7.71331 10.6847 10.5 10.6847Z" fill="black"/>
</svg>
