<svg width="22" height="22" viewBox="0 0 22 22" fill="none" xmlns="http://www.w3.org/2000/svg">
<path d="M21.5892 3.06886C21.5892 2.45823 21.351 1.88222 20.9223 1.45352C20.0302 0.561392 18.5794 0.561392 17.6873 1.45352L14.2013 4.93101C14.0714 4.90072 13.937 4.87471 13.8029 4.85313C12.9238 4.72323 12.0056 4.87042 11.2132 5.26027C9.05657 4.85756 6.9478 5.56336 5.22384 7.28702L1.77238 10.7426L0.486132 12.0289C0.429828 12.0852 0.40382 12.1631 0.41254 12.2368C0.416825 12.2931 0.442834 12.3494 0.486132 12.397L2.8983 14.8177C2.79442 16.2079 3.26213 17.5374 4.19742 18.4684C5.04627 19.3173 6.21547 19.785 7.46699 19.785C7.5926 19.785 7.71821 19.7807 7.8481 19.772L9.96576 21.8896C9.97876 21.9026 9.99177 21.9113 10.0048 21.9199C10.0481 21.9502 10.0956 21.9632 10.1477 21.9632H10.1737C10.1867 21.9632 10.1954 21.9589 10.2083 21.9589C10.2558 21.9459 10.2991 21.9243 10.3339 21.8896L15.0801 17.1434C16.8037 15.4198 17.5139 13.3107 17.1069 11.1498C17.4966 10.3573 17.6396 9.44356 17.514 8.56017C17.4923 8.42599 17.4664 8.29166 17.4361 8.16177L20.9179 4.68001C21.351 4.25558 21.5891 3.67957 21.5891 3.06894L21.5892 3.06886ZM15.7039 6.26913C15.7342 6.29513 15.7645 6.32114 15.7948 6.35144L15.8035 6.36016C15.8338 6.39045 15.8685 6.42075 15.8988 6.45104C15.9031 6.45532 15.9075 6.45976 15.9118 6.46404C15.9421 6.49434 15.9724 6.52463 16.0027 6.55936C16.007 6.56364 16.0114 6.57236 16.0157 6.57665C16.0417 6.60266 16.0633 6.62866 16.0893 6.65896C16.0936 6.66324 16.0936 6.66768 16.098 6.66768C16.9554 7.65941 17.2456 9.04512 16.8905 10.2923C16.5354 9.20098 15.903 8.18326 15.05 7.32586C14.1968 6.47274 13.1748 5.84039 12.0835 5.48531C13.3263 5.12592 14.7121 5.416 15.7039 6.26913ZM4.56986 18.1049C3.83364 17.3687 3.43096 16.3986 3.40921 15.3291L7.25472 19.1704L7.35004 19.2657C6.2717 19.2396 5.30157 18.8367 4.56977 18.1049L4.56986 18.1049ZM8.13395 19.3174L7.65323 18.8367L1.03169 12.211L1.95412 11.2886L11.0744 20.4134L10.152 21.3358L8.13395 19.3174ZM14.7165 16.7754L11.4425 20.0494L2.32225 10.9291L5.59625 7.6551C7.20717 6.04418 9.17763 5.38585 11.1827 5.78425C11.187 5.78425 11.1957 5.78853 11.2 5.78853C13.7984 6.30825 16.0632 8.57307 16.583 11.1715C16.583 11.1802 16.5873 11.1888 16.5917 11.1975C16.9816 13.1983 16.3276 15.1686 14.7166 16.7753L14.7165 16.7754ZM17.263 7.60743C17.1028 7.19174 16.8776 6.8019 16.5961 6.45124C16.5874 6.44252 16.5831 6.43395 16.5744 6.42523C16.5483 6.39494 16.5223 6.36021 16.4965 6.32992C16.4747 6.30391 16.4489 6.2779 16.4272 6.25204C16.4142 6.23904 16.4054 6.22603 16.3926 6.21303C16.358 6.17845 16.3233 6.13944 16.2887 6.10471C16.2844 6.10042 16.28 6.09599 16.2757 6.08742C16.2411 6.05284 16.2021 6.01383 16.1631 5.9791C16.1501 5.97038 16.1414 5.95737 16.1285 5.9488C16.0982 5.92279 16.0679 5.8925 16.0332 5.86649C16.0115 5.84477 15.9856 5.82748 15.9639 5.8059C15.9509 5.7929 15.9379 5.78418 15.9206 5.77132C15.5698 5.48552 15.1801 5.2603 14.7599 5.10013L18.0468 1.81327C18.7353 1.12478 19.8569 1.12478 20.5456 1.81327C20.8789 2.14665 21.0609 2.5885 21.0609 3.06479C21.0609 3.5368 20.8789 3.98294 20.5456 4.31631L17.263 7.60743Z" fill="black"/>
</svg>
