<svg width="390" height="115" viewBox="0 0 390 115" fill="none" xmlns="http://www.w3.org/2000/svg">
<g filter="url(#filter0_d_20_11190)">
<mask id="path-1-inside-1_20_11190" fill="white">
<path fill-rule="evenodd" clip-rule="evenodd" d="M156.078 21H50.1846C39.037 21 30 30.037 30 41.1846V74.8154C30 85.963 39.037 95 50.1846 95H339.815C350.963 95 360 85.963 360 74.8154V41.1846C360 30.037 350.963 21 339.815 21H233.908C232.641 51.8036 214.325 61.2889 197.107 61.2889C177.402 61.2889 155.795 49.8461 156.078 21Z"/>
</mask>
<path fill-rule="evenodd" clip-rule="evenodd" d="M156.078 21H50.1846C39.037 21 30 30.037 30 41.1846V74.8154C30 85.963 39.037 95 50.1846 95H339.815C350.963 95 360 85.963 360 74.8154V41.1846C360 30.037 350.963 21 339.815 21H233.908C232.641 51.8036 214.325 61.2889 197.107 61.2889C177.402 61.2889 155.795 49.8461 156.078 21Z" fill="white"/>
<path d="M156.078 21L156.919 21.0082L156.927 20.159H156.078V21ZM233.908 21V20.159H233.101L233.067 20.9654L233.908 21ZM50.1846 21.841H156.078V20.159H50.1846V21.841ZM30.841 41.1846C30.841 30.5014 39.5014 21.841 50.1846 21.841V20.159C38.5725 20.159 29.159 29.5725 29.159 41.1846H30.841ZM30.841 74.8154V41.1846H29.159V74.8154H30.841ZM50.1846 94.159C39.5015 94.159 30.841 85.4986 30.841 74.8154H29.159C29.159 86.4275 38.5725 95.841 50.1846 95.841V94.159ZM339.815 94.159H50.1846V95.841H339.815V94.159ZM359.159 74.8154C359.159 85.4986 350.499 94.159 339.815 94.159V95.841C351.428 95.841 360.841 86.4275 360.841 74.8154H359.159ZM359.159 41.1846V74.8154H360.841V41.1846H359.159ZM339.815 21.841C350.499 21.841 359.159 30.5014 359.159 41.1846H360.841C360.841 29.5725 351.427 20.159 339.815 20.159V21.841ZM233.908 21.841H339.815V20.159H233.908V21.841ZM233.067 20.9654C232.441 36.2001 227.608 46.0365 220.926 52.0716C214.231 58.117 205.57 60.4479 197.107 60.4479V62.1299C205.862 62.1299 214.968 59.7182 222.053 53.32C229.149 46.9116 234.108 36.6035 234.748 21.0346L233.067 20.9654ZM197.107 60.4479C187.403 60.4479 177.279 57.6284 169.633 51.3133C162.013 45.0199 156.78 35.1962 156.919 21.0082L155.237 20.9918C155.093 35.6499 160.522 45.9706 168.562 52.6102C176.574 59.228 187.106 62.1299 197.107 62.1299V60.4479Z" fill="#F4F4F4" mask="url(#path-1-inside-1_20_11190)"/>
</g>
<defs>
<filter id="filter0_d_20_11190" x="-1.95898" y="0.815384" width="414.103" height="158.103" filterUnits="userSpaceOnUse" color-interpolation-filters="sRGB">
<feFlood flood-opacity="0" result="BackgroundImageFix"/>
<feColorMatrix in="SourceAlpha" type="matrix" values="0 0 0 0 0 0 0 0 0 0 0 0 0 0 0 0 0 0 127 0" result="hardAlpha"/>
<feOffset dx="10.0923" dy="21.8667"/>
<feGaussianBlur stdDeviation="21.0256"/>
<feColorMatrix type="matrix" values="0 0 0 0 0.352941 0 0 0 0 0.423529 0 0 0 0 0.917647 0 0 0 0.07 0"/>
<feBlend mode="normal" in2="BackgroundImageFix" result="effect1_dropShadow_20_11190"/>
<feBlend mode="normal" in="SourceGraphic" in2="effect1_dropShadow_20_11190" result="shape"/>
</filter>
</defs>
</svg>
