<svg width="18" height="18" viewBox="0 0 18 18" fill="none" xmlns="http://www.w3.org/2000/svg">
<path fill-rule="evenodd" clip-rule="evenodd" d="M4.00006 1C4.00006 0.447715 4.44778 0 5.00006 0C5.55235 0 6.00006 0.447715 6.00006 1V2H12.0001V1C12.0001 0.447715 12.4478 0 13.0001 0C13.5523 0 14.0001 0.447715 14.0001 1V2H15.0001C16.6569 2 18.0001 3.34315 18.0001 5V15C18.0001 16.6569 16.6569 18 15.0001 18H3.00006C1.34321 18 6.10352e-05 16.6569 6.10352e-05 15V5C6.10352e-05 3.34315 1.34321 2 3.00006 2H4.00006V1ZM2.00006 5C2.00006 4.44771 2.44778 4 3.00006 4H15.0001C15.5523 4 16.0001 4.44772 16.0001 5V7H2.00006V5ZM2.00006 9V15C2.00006 15.5523 2.44778 16 3.00006 16H15.0001C15.5523 16 16.0001 15.5523 16.0001 15V9H2.00006Z" fill="url(#paint0_linear_3_176)"/>
<defs>
<linearGradient id="paint0_linear_3_176" x1="-3.25521" y1="-3.6793" x2="17.5639" y2="22.1796" gradientUnits="userSpaceOnUse">
<stop stop-color="#53E88B"/>
<stop offset="1" stop-color="#15BE77"/>
</linearGradient>
</defs>
</svg>
