<svg width="30" height="28" viewBox="0 0 30 28" fill="none" xmlns="http://www.w3.org/2000/svg">
<g filter="url(#filter0_d_6_13414)">
<path d="M4 21.3977V25H26V21.3977H22.644V19.0634H24.9345V18.7464C24.8336 16.0229 23.7778 13.4432 21.982 11.5324C20.186 9.62129 17.7845 8.52191 15.2663 8.4582V5.57632H18.5157V5H11.4843V5.57632H14.7337V8.4582C12.2155 8.52192 9.8139 9.62134 8.01799 11.5324C6.22216 13.4436 5.16635 16.0231 5.06547 18.7464V19.0634H7.35603V21.3977H4ZM25.4673 24.4237H4.53269V21.974H25.4673V24.4237ZM15 9.00566C17.3838 9.00023 19.6801 9.97742 21.4217 11.7388C23.1633 13.5001 24.2193 15.9132 24.3752 18.487H5.6246C5.78048 15.913 6.83647 13.5 8.57807 11.7388C10.3198 9.97736 12.6161 9.0002 14.9998 9.00566H15ZM7.88862 19.0634H22.1114V21.3977H7.88862V19.0634Z" fill="white"/>
</g>
<defs>
<filter id="filter0_d_6_13414" x="0" y="0" width="30" height="28" filterUnits="userSpaceOnUse" color-interpolation-filters="sRGB">
<feFlood flood-opacity="0" result="BackgroundImageFix"/>
<feColorMatrix in="SourceAlpha" type="matrix" values="0 0 0 0 0 0 0 0 0 0 0 0 0 0 0 0 0 0 127 0" result="hardAlpha"/>
<feOffset dy="-1"/>
<feGaussianBlur stdDeviation="2"/>
<feComposite in2="hardAlpha" operator="out"/>
<feColorMatrix type="matrix" values="0 0 0 0 1 0 0 0 0 1 0 0 0 0 1 0 0 0 0.7 0"/>
<feBlend mode="normal" in2="BackgroundImageFix" result="effect1_dropShadow_6_13414"/>
<feBlend mode="normal" in="SourceGraphic" in2="effect1_dropShadow_6_13414" result="shape"/>
</filter>
</defs>
</svg>
