<svg width="60" height="60" viewBox="0 0 60 60" fill="none" xmlns="http://www.w3.org/2000/svg">
<path fill-rule="evenodd" clip-rule="evenodd" d="M18.0937 5.86714C30.4172 -0.703799 45.7335 3.96057 52.3038 16.2853C58.8741 28.61 54.2102 43.9279 41.8867 50.4989C29.5632 57.0698 14.2468 52.4054 7.67659 40.0807C1.10626 27.756 5.7702 12.438 18.0937 5.86714Z" fill="white"/>
<path fill-rule="evenodd" clip-rule="evenodd" d="M15.889 3.53263C30.5065 -4.26071 48.6741 1.27138 56.4674 15.8889C64.2607 30.5065 58.7286 48.674 44.111 56.4674C29.4935 64.2607 11.326 58.7286 3.53264 44.1111C-4.26073 29.4935 1.2714 11.326 15.889 3.53263Z" fill="#2BA438"/>
<path fill-rule="evenodd" clip-rule="evenodd" d="M16.8298 5.28903C30.488 -1.99359 47.4633 3.17601 54.7452 16.8356C62.027 30.4952 56.858 47.4721 43.1998 54.7548C29.5415 62.0374 12.5663 56.8678 5.28438 43.2082C-1.99746 29.5486 3.17157 12.5716 16.8298 5.28903Z" fill="#2BA438"/>
<path fill-rule="evenodd" clip-rule="evenodd" d="M17.3778 7.56296C30.2998 0.672848 46.3602 5.56382 53.2496 18.4872C60.139 31.4106 55.2486 47.4726 42.3264 54.3627C29.4044 61.2527 13.344 56.3618 6.45462 43.4384C-0.434798 30.515 4.45564 14.4531 17.3778 7.56296Z" fill="#2BA438"/>
<path d="M12.8802 10.9195L14.5164 11.7011L14.2183 12.3651C13.7481 12.2749 13.3445 12.2809 13.0065 12.3822C12.6677 12.4845 12.391 12.6624 12.1765 12.9177C12.038 13.0827 11.9625 13.2403 11.9502 13.3925C11.937 13.5438 11.972 13.6537 12.0545 13.723C12.1487 13.8022 12.2724 13.8323 12.4255 13.8136C12.578 13.7976 12.78 13.7026 13.0343 13.5294L13.9056 12.9467C14.3872 12.6226 14.8059 12.4551 15.1616 12.4424C15.5177 12.4351 15.8312 12.5444 16.1032 12.7729C16.4498 13.0641 16.6261 13.4483 16.6339 13.9255C16.639 14.4558 16.4481 14.9503 16.0638 15.4079C15.8848 15.621 15.6941 15.7941 15.491 15.9283C15.2877 16.0607 15.0406 16.1714 14.7495 16.2567L14.9308 16.6251L14.5712 17.0533L12.7784 16.0294L13.0991 15.3844C13.5226 15.5241 13.9527 15.5504 14.3891 15.4615C14.8274 15.3725 15.1801 15.1679 15.4481 14.8488C15.5694 14.7044 15.6505 14.57 15.6942 14.4442C15.737 14.3194 15.7462 14.2048 15.7208 14.1014C15.6964 13.9988 15.6485 13.9184 15.5787 13.8598C15.4639 13.7633 15.3185 13.735 15.1429 13.7767C14.9645 13.8194 14.7173 13.9484 14.4008 14.1616L13.6429 14.6671C13.5287 14.7454 13.3592 14.8375 13.1345 14.9435C12.909 15.0505 12.7133 15.1139 12.5495 15.1354C12.3856 15.1552 12.2096 15.1395 12.0238 15.0873C11.8364 15.0354 11.6694 14.9471 11.5202 14.8217C11.3071 14.6427 11.1612 14.4197 11.0815 14.1516C11.0007 13.8828 11.0057 13.5839 11.0936 13.254C11.1814 12.9241 11.3448 12.6159 11.5865 12.3281C11.8776 11.9815 12.2291 11.7426 12.6419 11.612L12.5347 11.3309L12.8802 10.9195ZM14.8845 9.05802L17.071 7.73722L17.4449 8.35633L17.232 8.48498C17.1343 8.54397 17.0724 8.59783 17.0457 8.64544C17.0186 8.69476 17.0078 8.74623 17.0156 8.80144C17.0235 8.85661 17.068 8.95264 17.1489 9.08655L18.1341 10.7178C18.3177 11.0219 18.485 11.2294 18.6373 11.3427C18.7878 11.4555 18.9501 11.5133 19.1201 11.517C19.2912 11.52 19.4644 11.4694 19.6411 11.3626C19.8167 11.2565 19.9478 11.1189 20.0345 10.9497C20.1199 10.7812 20.152 10.6135 20.1317 10.446C20.1114 10.2784 20.0098 10.0432 19.8261 9.7391L18.7408 7.94209C18.695 7.86631 18.6533 7.81961 18.6136 7.79864C18.5626 7.77105 18.5096 7.76259 18.4568 7.772C18.4181 7.77744 18.3373 7.81727 18.2132 7.89219L18.0377 7.99824L17.6637 7.37913L19.5275 6.25325L19.9014 6.87237L19.7555 6.96056C19.6117 7.04745 19.5269 7.11058 19.5029 7.14762C19.4672 7.20512 19.4514 7.2656 19.4581 7.32896C19.4598 7.37143 19.5047 7.46566 19.5929 7.61163L20.6596 9.37795C20.8566 9.70391 20.9744 10.0058 21.0133 10.2835C21.0637 10.662 20.9946 11.0214 20.8082 11.3603C20.6219 11.6991 20.332 11.9881 19.939 12.2254C19.6624 12.3925 19.3885 12.4996 19.1179 12.5477C18.8484 12.5951 18.5834 12.5903 18.3251 12.5322C18.0649 12.4736 17.8496 12.3774 17.6776 12.2416C17.5068 12.1051 17.3174 11.8659 17.1098 11.5223L16.0643 9.79116C15.9688 9.63308 15.8977 9.53517 15.8534 9.49899C15.808 9.46353 15.7606 9.44715 15.7079 9.44909C15.6569 9.45143 15.5756 9.48554 15.4637 9.55317L15.2584 9.67718L14.8845 9.05802ZM25.1019 4.41359L25.6151 4.26825L26.6224 5.93836L26.0051 6.32372C25.6586 5.95668 25.3614 5.71162 25.113 5.58738C24.7676 5.41729 24.4353 5.37806 24.1145 5.46891C23.8813 5.53496 23.6814 5.66217 23.5145 5.8494C23.3476 6.03664 23.2401 6.27364 23.1917 6.55928C23.1437 6.84614 23.1679 7.15783 23.264 7.49711C23.41 8.01296 23.6728 8.41843 24.0522 8.71352C24.4304 9.00893 24.8422 9.09357 25.2852 8.96811C25.5677 8.88815 25.8152 8.73143 26.0297 8.49605C26.2992 8.20514 26.5047 7.85772 26.645 7.45409L27.3229 7.71134C27.0994 8.31048 26.8653 8.74997 26.6195 9.03017C26.2395 9.46295 25.7652 9.75989 25.1939 9.92165C24.7201 10.0558 24.2586 10.0639 23.8093 9.94586C23.3614 9.82747 22.9652 9.59578 22.6201 9.25227C22.2758 8.90723 22.035 8.49434 21.898 8.01057C21.7618 7.52933 21.7488 7.05987 21.8603 6.60176C21.9703 6.14278 22.1865 5.74834 22.5089 5.41842C22.8301 5.0889 23.2268 4.85658 23.6981 4.72308C24.178 4.58719 24.6259 4.56838 25.0436 4.66467L25.1019 4.41359ZM32.3041 4.02841L32.8375 4.03692L33.3217 5.92626L32.6196 6.11772C32.3935 5.66644 32.1792 5.34624 31.9771 5.15577C31.6953 4.89348 31.3883 4.76029 31.0549 4.75494C30.8126 4.75111 30.5846 4.81541 30.3709 4.94667C30.1571 5.07797 29.986 5.27402 29.8574 5.53366C29.7289 5.79451 29.6624 6.10004 29.6568 6.45264C29.6483 6.98864 29.7833 7.45256 30.0617 7.8444C30.3389 8.23619 30.7089 8.43571 31.1693 8.44304C31.4629 8.44772 31.745 8.36893 32.0182 8.20519C32.36 8.00418 32.6568 7.7306 32.9072 7.38444L33.4824 7.82582C33.096 8.33527 32.7453 8.68886 32.4293 8.88649C31.9409 9.19162 31.4011 9.33948 30.8075 9.33003C30.3152 9.32215 29.8708 9.19706 29.4746 8.9547C29.0795 8.71239 28.7669 8.37649 28.5352 7.94825C28.3047 7.51875 28.1929 7.05393 28.2009 6.55127C28.2089 6.05117 28.3315 5.59778 28.5702 5.19114C28.8075 4.78319 29.128 4.46767 29.5317 4.24453C29.9342 4.02135 30.3809 3.91304 30.8707 3.92087C31.3695 3.92879 31.8038 4.03966 32.1762 4.25209L32.3041 4.02841ZM35.5186 4.547L39.6712 5.91708L39.7172 7.68515L38.9938 7.70441C38.9698 7.40883 38.9107 7.15837 38.8163 6.95305C38.7224 6.74651 38.5951 6.58835 38.4357 6.47774C38.276 6.36827 38.0775 6.2744 37.8424 6.19687L37.0825 5.94619L36.6703 7.19572L36.9175 7.2773C37.1027 7.33836 37.2325 7.36639 37.3063 7.35964C37.3796 7.35411 37.4404 7.32558 37.4877 7.27636C37.535 7.22713 37.5878 7.11625 37.6452 6.94212L37.7079 6.75209L38.3509 6.96425L37.6567 9.06877L37.0137 8.85666L37.0848 8.64108C37.133 8.49497 37.1513 8.38212 37.1393 8.30391C37.1273 8.22566 37.0963 8.1641 37.0454 8.12167C36.9938 8.07762 36.8675 8.0225 36.6653 7.95581L36.4437 7.88265L36.0665 9.02625C36.0268 9.14689 36.0084 9.22316 36.0117 9.25394C36.0142 9.28314 36.0317 9.31189 36.0614 9.33651C36.0907 9.36238 36.1625 9.39419 36.277 9.43199L36.6947 9.56982C37.0065 9.67264 37.2832 9.71394 37.5268 9.69576C37.7709 9.67637 38.0099 9.59452 38.2422 9.45103C38.4761 9.30676 38.6836 9.11184 38.8641 8.8675L39.4417 9.30658L38.1783 10.9425L33.877 9.52338L34.1036 8.8365L34.2278 8.87749C34.3947 8.93252 34.5108 8.95732 34.5756 8.95304C34.6409 8.94755 34.6947 8.91943 34.7375 8.86737C34.7614 8.83605 34.8008 8.73696 34.8558 8.57011L35.7509 5.85665C35.7995 5.70924 35.8219 5.60862 35.8161 5.5567C35.8115 5.50526 35.791 5.46067 35.7544 5.42427C35.7195 5.3871 35.6391 5.3484 35.5136 5.30705L35.292 5.23389L35.5186 4.547ZM45.3864 9.48212L44.7218 11.1693L44.0385 10.9186C44.0954 10.4432 44.0611 10.0409 43.9363 9.71093C43.8104 9.38011 43.6136 9.11652 43.3439 8.92055C43.1696 8.79393 43.0071 8.72968 42.8544 8.72815C42.7025 8.72558 42.5954 8.76824 42.5321 8.85544C42.4597 8.95502 42.4383 9.08052 42.4677 9.23193C42.4944 9.3829 42.6034 9.57769 42.794 9.81928L43.4365 10.6476C43.7936 11.1052 43.9901 11.5111 44.0277 11.8651C44.0601 12.2199 43.9731 12.5403 43.7643 12.8277C43.4982 13.1939 43.1273 13.3968 42.6519 13.4382C42.1234 13.4806 41.6167 13.3248 41.1333 12.9735C40.9082 12.81 40.7221 12.632 40.574 12.4388C40.4277 12.2452 40.2999 12.0066 40.1942 11.7222L39.8396 11.9289L39.3873 11.6002L40.2824 9.73968L40.9484 10.0143C40.8387 10.4467 40.8427 10.8776 40.9621 11.3067C41.0817 11.7376 41.3105 12.0751 41.6477 12.3201C41.8002 12.4309 41.9401 12.5024 42.0686 12.5372C42.196 12.5711 42.3109 12.5722 42.4123 12.5396C42.5129 12.5081 42.5898 12.4546 42.6433 12.3809C42.7315 12.2595 42.7495 12.1125 42.6956 11.9402C42.6404 11.7653 42.4944 11.5276 42.2595 11.227L41.702 10.5064C41.6159 10.3979 41.5122 10.2353 41.3906 10.0186C41.268 9.80115 41.191 9.61045 41.158 9.44855C41.1269 9.28638 41.1301 9.10963 41.169 8.92069C41.2077 8.73008 41.2841 8.55725 41.3987 8.39958C41.5622 8.17445 41.7744 8.01318 42.0361 7.91482C42.2985 7.81538 42.5971 7.79936 42.9323 7.86379C43.2675 7.92818 43.5865 8.06957 43.8904 8.29046C44.2566 8.55657 44.5197 8.8904 44.6789 9.29304L44.9517 9.16628L45.3864 9.48212ZM49.8151 14.2765L48.712 15.7158L48.124 15.2867C48.3095 14.8453 48.3872 14.4491 48.358 14.0975C48.328 13.7448 48.2112 13.4372 48.0059 13.1746C47.8731 13.0049 47.7345 12.8984 47.5882 12.855C47.4428 12.8107 47.3282 12.8223 47.2433 12.8886C47.1463 12.9645 47.0912 13.0793 47.0779 13.233C47.062 13.3854 47.1131 13.6027 47.23 13.8874L47.6198 14.8605C47.8372 15.3987 47.9145 15.843 47.8534 16.1937C47.7869 16.5437 47.6151 16.8278 47.3353 17.0467C46.9787 17.3256 46.5663 17.4186 46.0979 17.3276C45.5781 17.2229 45.1339 16.9338 44.7657 16.463C44.5943 16.2438 44.4643 16.0215 44.3751 15.795C44.2876 15.5687 44.2305 15.304 44.2071 15.0016L43.8092 15.1027L43.4648 14.6623L44.8372 13.1199L45.4019 13.5671C45.1776 13.9526 45.0629 14.368 45.0596 14.8134C45.0561 15.2607 45.1832 15.648 45.4399 15.9763C45.5561 16.1248 45.6709 16.232 45.7849 16.3008C45.8981 16.3685 46.0083 16.4012 46.1147 16.3977C46.2201 16.3951 46.3087 16.3648 46.3804 16.3087C46.4987 16.2163 46.5564 16.0799 46.5519 15.8994C46.547 15.7161 46.472 15.4474 46.3289 15.0937L45.9911 14.2475C45.9382 14.1196 45.8831 13.9347 45.8259 13.6929C45.7679 13.4501 45.7463 13.2456 45.7591 13.0809C45.7737 12.9163 45.8255 12.7473 45.9149 12.5764C46.0045 12.4038 46.1255 12.2587 46.279 12.1386C46.4981 11.9671 46.7465 11.8705 47.0252 11.8479C47.3049 11.8245 47.5963 11.8912 47.9009 12.0454C48.2054 12.1995 48.4732 12.4232 48.7046 12.7192C48.9835 13.0758 49.1446 13.4691 49.1869 13.9L49.4841 13.8532L49.8151 14.2765Z" fill="white"/>
<path d="M16.9403 47.1126L19.0265 48.1475L18.7335 48.7383L18.5419 48.6432C18.436 48.5907 18.3586 48.5653 18.309 48.5681C18.2598 48.5698 18.217 48.5878 18.1805 48.6193C18.1451 48.6512 18.0936 48.734 18.0276 48.867L17.6572 49.6138L19.2218 50.39L19.6198 49.5877C19.6686 49.4892 19.695 49.4202 19.7012 49.3788C19.7089 49.3213 19.6983 49.2742 19.6699 49.2367C19.64 49.1997 19.5598 49.1482 19.4279 49.0827L19.2677 49.0033L19.5606 48.4125L21.6468 49.4474L21.3539 50.0381L21.179 49.9514C21.0606 49.8927 20.9774 49.8632 20.9288 49.8639C20.8807 49.8635 20.8389 49.8793 20.8045 49.9092C20.7701 49.9391 20.7181 50.0256 20.6485 50.1659L19.4967 52.488C19.4256 52.6315 19.3893 52.7283 19.3884 52.7801C19.3865 52.8313 19.4023 52.8758 19.4332 52.9133C19.4642 52.9509 19.5512 53.0045 19.6947 53.0756L19.8172 53.1364L19.5242 53.7272L17.438 52.6922L17.731 52.1015L17.8671 52.169C17.9949 52.2324 18.0859 52.2645 18.1419 52.2674C18.1973 52.2688 18.2433 52.2551 18.2798 52.2237C18.3168 52.1937 18.3704 52.1068 18.4416 51.9633L18.8914 51.0562L17.3268 50.28L16.8769 51.1871C16.8057 51.3306 16.7679 51.4227 16.7617 51.464C16.7572 51.5258 16.772 51.5748 16.8066 51.6129C16.8407 51.6494 16.9235 51.7009 17.0534 51.7653L17.1968 51.8365L16.9038 52.4272L14.8176 51.3923L15.1106 50.8016L15.2531 50.8722C15.3714 50.9309 15.4604 50.962 15.5174 50.9654C15.5749 50.9679 15.6214 50.9558 15.6574 50.9279C15.6939 50.899 15.7423 50.8225 15.8041 50.6979L16.9584 48.3706C17.0306 48.225 17.069 48.1266 17.073 48.0737C17.077 48.0209 17.0659 47.9749 17.0396 47.9358C17.0128 47.8977 16.9457 47.8514 16.839 47.7984L16.6473 47.7033L16.9403 47.1126ZM25.0908 50.2059C25.8307 50.3735 26.3773 50.7334 26.7343 51.2853C27.0897 51.8382 27.1883 52.4671 27.029 53.1706C26.9216 53.645 26.7217 54.0409 26.4302 54.3597C26.1372 54.6794 25.7847 54.8968 25.3704 55.0116C24.9569 55.1277 24.4898 55.1262 23.9686 55.0082C23.28 54.8523 22.7596 54.5355 22.4061 54.0586C21.9789 53.4835 21.8522 52.8147 22.025 52.0519C22.1853 51.3437 22.5494 50.816 23.1156 50.4695C23.6816 50.1242 24.3405 50.036 25.0908 50.2059ZM24.9371 50.9479C24.5825 50.8676 24.271 50.9361 24.0024 51.1534C23.6634 51.4279 23.4349 51.8281 23.3157 52.3549C23.1963 52.8817 23.2239 53.3267 23.3996 53.689C23.5523 53.9993 23.8019 54.1937 24.1497 54.2724C24.4986 54.3514 24.8076 54.2835 25.0768 54.0688C25.3953 53.8113 25.6134 53.4195 25.7321 52.895C25.8158 52.5255 25.8335 52.2034 25.7843 51.9286C25.7351 51.6537 25.6351 51.4332 25.482 51.2679C25.3299 51.1028 25.1481 50.9957 24.9371 50.9479ZM28.8432 50.6404L29.2943 50.6325L29.3451 50.793L32.0441 50.7458L32.0997 50.5835L32.5509 50.5755L33.167 52.244L32.5397 52.4783C32.3934 52.2026 32.2885 52.0232 32.2251 51.94C32.1018 51.7762 31.9592 51.6465 31.7998 51.5546C31.6804 51.483 31.5617 51.4488 31.4449 51.4509C31.39 51.4518 31.3528 51.4654 31.3322 51.4926C31.3128 51.5186 31.3033 51.5784 31.3049 51.672L31.3529 54.4145C31.3557 54.577 31.3633 54.6774 31.3757 54.7181C31.3882 54.76 31.4074 54.7912 31.4359 54.8153C31.4632 54.8382 31.502 54.8539 31.55 54.8612C31.5981 54.8686 31.7268 54.8699 31.936 54.8662L31.9476 55.5255L29.6192 55.5662L29.6077 54.9069L29.7491 54.9045C29.9045 54.9017 30.0049 54.8906 30.0478 54.8699C30.0907 54.8505 30.124 54.8148 30.1465 54.7653C30.1679 54.7158 30.1777 54.6139 30.175 54.4597L30.126 51.6552C30.1246 51.5757 30.1144 51.5256 30.0953 51.5049C30.0774 51.4853 30.0376 51.4755 29.9791 51.4765C29.8599 51.4786 29.7274 51.5253 29.5828 51.6167C29.4371 51.7082 29.3084 51.8355 29.1967 52C29.1522 52.0639 29.0583 52.2445 28.915 52.5417L28.2857 52.3293L28.8432 50.6404ZM33.8231 50.5613L37.6701 49.5155L38.5938 50.8371L38.0533 51.2155C37.8865 51.0027 37.7156 50.842 37.5406 50.7333C37.3654 50.6233 37.189 50.5671 37.0122 50.5631C36.8357 50.5602 36.6375 50.5886 36.4198 50.6477L35.7158 50.8391L36.0305 51.9967L36.2595 51.9345C36.4309 51.8878 36.5437 51.8439 36.5965 51.8017C36.6496 51.7606 36.6814 51.7083 36.6926 51.6471C36.7038 51.5859 36.6883 51.475 36.6444 51.3137L36.5966 51.1377L37.1922 50.9758L37.7221 52.9254L37.1264 53.0873L37.0721 52.8876C37.0353 52.7522 36.9926 52.6572 36.9441 52.6038C36.8956 52.5503 36.8411 52.5191 36.7812 52.5124C36.7198 52.5048 36.596 52.5264 36.4087 52.5773L36.2034 52.633L36.4913 53.6925C36.5217 53.8041 36.546 53.8715 36.564 53.8932C36.5806 53.9141 36.6084 53.9272 36.6434 53.931C36.6786 53.9359 36.7493 53.924 36.8553 53.8952L37.2423 53.79C37.5311 53.7115 37.7623 53.6038 37.9385 53.4675C38.1143 53.33 38.2549 53.1476 38.3595 52.9217C38.4649 52.6944 38.5247 52.4418 38.5392 52.1653L39.1992 52.2089L39.0606 54.0881L35.076 55.1713L34.9031 54.535L35.0181 54.5037C35.1727 54.4616 35.2734 54.4222 35.3206 54.3863C35.3675 54.3493 35.3943 54.3009 35.4007 54.2398C35.4031 54.2039 35.3833 54.1088 35.3413 53.9542L34.6581 51.4405C34.621 51.3039 34.5875 51.2162 34.5569 51.1796C34.5275 51.1428 34.4896 51.1191 34.4435 51.1099C34.3981 51.0992 34.3176 51.1102 34.2013 51.1417L33.996 51.1976L33.8231 50.5613ZM39.2645 48.8638L41.3488 47.8248L41.6429 48.415L41.4598 48.5063C41.3583 48.5568 41.2971 48.5939 41.2762 48.6174C41.2369 48.6618 41.217 48.7109 41.2159 48.7637C41.2148 48.8166 41.2366 48.8893 41.282 48.9803L42.4972 51.4183C42.5462 51.5167 42.5801 51.5743 42.601 51.5926C42.6214 51.6099 42.6491 51.6183 42.6841 51.6178C42.7202 51.6168 42.7777 51.5959 42.8593 51.5553C43.1334 51.4186 43.3354 51.2735 43.4663 51.1194C43.5967 50.9643 43.6895 50.7757 43.7447 50.5509C43.7998 50.3261 43.808 50.0542 43.7687 49.7341L44.428 49.6472L44.6558 51.5141L41.3956 53.1394L41.1015 52.5492L41.3054 52.4475C41.3892 52.4058 41.4461 52.363 41.4781 52.3196C41.5085 52.2757 41.5248 52.2297 41.5248 52.1827C41.526 52.1351 41.5025 52.0644 41.4555 51.9703L40.2477 49.5469C40.1966 49.4443 40.1507 49.3758 40.1083 49.3407C40.0671 49.3051 40.0237 49.2862 39.9777 49.283C39.9322 49.2808 39.8674 49.3001 39.7837 49.3419L39.5587 49.454L39.2645 48.8638Z" fill="white"/>
<path fill-rule="evenodd" clip-rule="evenodd" d="M8.01312 38.8996L8.44154 40.1739L9.83613 40.1713L8.70632 40.9562L9.13983 42.2289L8.01312 41.4398L6.88642 42.2289L7.31992 40.9562L6.19006 40.1713L7.5847 40.1739L8.01312 38.8996Z" fill="white"/>
<path fill-rule="evenodd" clip-rule="evenodd" d="M12.1824 44.211L12.6108 45.4852L14.0054 45.4827L12.8756 46.2676L13.3091 47.5403L12.1824 46.7511L11.0557 47.5403L11.4892 46.2676L10.3594 45.4827L11.754 45.4852L12.1824 44.211Z" fill="white"/>
<path fill-rule="evenodd" clip-rule="evenodd" d="M6.17718 26.0791L6.6056 27.3534L8.0002 27.3508L6.87039 28.1357L7.30389 29.4084L6.17718 28.6192L5.05048 29.4084L5.48398 28.1357L4.35413 27.3508L5.74876 27.3534L6.17718 26.0791Z" fill="white"/>
<path fill-rule="evenodd" clip-rule="evenodd" d="M7.99284 19.2264L8.42131 20.5007L9.8159 20.498L8.68609 21.283L9.1196 22.5557L7.99284 21.7665L6.86618 22.5557L7.29964 21.283L6.16983 20.498L7.56447 20.5007L7.99284 19.2264Z" fill="white"/>
<path fill-rule="evenodd" clip-rule="evenodd" d="M6.22829 32.777L6.65671 34.0513L8.0513 34.0487L6.92149 34.8337L7.35504 36.1063L6.22829 35.3172L5.10163 36.1063L5.53509 34.8337L4.40527 34.0487L5.79991 34.0513L6.22829 32.777Z" fill="white"/>
<path fill-rule="evenodd" clip-rule="evenodd" d="M22.7954 38.5887L24.313 38.8378V41.491C24.1049 41.4726 23.4381 41.2968 23.1404 41.2331C22.9372 41.1895 22.8407 41.1997 22.7861 41.1096L22.7954 38.5887ZM22.7863 33.4389L24.313 33.4782L24.3121 36.1431L22.7864 36.0049L22.7863 33.4389ZM18.8274 35.644C18.5564 35.6218 18.299 35.5967 18.025 35.572C17.7022 35.5428 17.7071 35.5856 17.6875 35.471L17.6896 33.3245L18.8096 33.3462C18.8746 33.5777 18.8266 35.2639 18.8274 35.644ZM18.8272 28.742L18.8271 31.0373L17.6893 31.0793L17.6943 28.8697L18.8272 28.742ZM24.3127 28.1221L24.3131 30.7864L22.7899 30.8554C22.7723 30.4929 22.7439 28.527 22.802 28.2886L24.3127 28.1221ZM18.8272 24.1379L18.8271 26.3874C18.7481 26.4992 18.4101 26.5042 18.2693 26.529C18.1034 26.5581 17.8505 26.6207 17.6896 26.6264L17.6881 24.4173L18.8272 24.1379ZM24.3132 22.7732L24.316 25.2795C24.3165 25.4891 24.3658 25.4205 23.747 25.532C23.425 25.59 23.1068 25.6613 22.7863 25.7043L22.789 23.1408L24.3132 22.7732ZM22.9963 18.2991C23.6999 18.0923 23.5488 19.1677 23.5494 19.665C23.5502 20.3162 23.4692 20.8155 22.8888 20.9536C22.1665 21.1255 22.3212 20.0996 22.3209 19.5817C22.3206 18.8789 22.3911 18.4769 22.9963 18.2991ZM22.0489 18.6462L22.0495 21.1373C22.029 21.223 21.8593 21.2445 21.7312 21.2723L21.7265 20.1106L21.1816 20.2774V21.4459L20.8627 21.5171L20.8598 19.0533L21.1815 18.9397L21.1828 20.0065L21.7306 19.8251L21.7317 18.7428L22.0489 18.6462ZM25.9805 17.3317C26.0407 17.2456 26.2044 17.2031 26.3062 17.2036L26.3077 19.6032L26.8611 19.4449C26.8621 19.7905 26.8759 19.7229 26.7585 19.7701C26.736 19.7792 26.6747 19.7945 26.6505 19.8016L25.9805 19.9964L25.9805 17.3317ZM24.7716 17.7155L24.7698 18.0575L24.3761 18.1928L24.3757 20.4428C24.3291 20.5275 24.1521 20.5582 24.0502 20.5725L24.0474 18.3018L23.6608 18.4147L23.6617 18.0873L24.7716 17.7155ZM24.9178 17.6929C24.9947 17.5953 25.6498 17.3973 25.7976 17.3633C25.8 17.695 25.8162 17.646 25.6832 17.6947L25.2442 17.8437L25.25 18.6837L25.6397 18.5715L25.6378 18.8613L25.245 18.9931L25.2467 19.9249L25.7992 19.7659L25.7977 20.057L24.9179 20.3125L24.9178 17.6929ZM16.6193 39.5289C16.7364 39.5717 16.8398 39.6204 16.9381 39.6866L17.1538 39.8661C17.1576 39.8696 17.1679 39.8868 17.1707 39.8818C17.1734 39.8766 17.1818 39.8927 17.1879 39.8976C17.5587 39.9314 18.2373 40.1274 18.6297 40.2169L19.7167 40.465C19.8621 40.4982 20.0263 40.5035 20.0496 40.5818C20.0621 40.6242 20.0306 42.8433 20.0592 42.9022C20.0944 42.9748 20.5308 43.068 20.6358 43.1003C21.4408 43.3481 22.2361 43.5662 23.0371 43.8097C23.8473 44.0561 24.6231 44.2814 25.4367 44.5217C25.8422 44.6414 26.2249 44.7506 26.6375 44.8763L27.6905 45.189C27.7987 45.218 27.7638 45.2302 27.8108 45.1792C27.7417 45.0881 27.7845 43.9321 27.7845 43.7207C27.7845 43.4517 27.7386 42.4199 27.8146 42.2735C27.7497 42.1484 27.793 41.0506 27.793 40.8041C27.793 40.6459 27.7564 39.4748 27.8288 39.3561C27.7619 39.2909 27.7844 39.3422 27.7812 39.1949L27.8267 36.4738C27.8299 36.4596 27.8402 36.4579 27.8479 36.451C27.7737 36.3925 27.822 36.456 27.7957 36.3592L27.7893 33.5693L27.8912 33.5285L27.7844 33.4985L27.7935 30.6302L27.7889 27.7209L27.7899 24.8021C27.8165 24.2564 27.8004 22.8914 27.7929 22.2205C27.7886 21.8394 27.7583 21.8952 27.8757 21.9091C27.7995 21.8511 27.9714 21.8675 27.7845 21.8595V16.165C27.7839 15.9996 27.7725 16.1279 27.8354 16.0739C27.7179 16.038 27.0382 16.3433 26.867 16.4063C26.5371 16.5277 26.2094 16.6572 25.8855 16.7858C25.4095 16.975 20.2207 18.9458 20.0613 19.0482L20.0493 21.3873C20.0316 21.4531 19.9305 21.4675 19.866 21.4874C19.7906 21.5108 19.7283 21.5316 19.6549 21.5546L16.6191 22.5154L16.6193 39.5289Z" fill="white"/>
<path fill-rule="evenodd" clip-rule="evenodd" d="M33.3375 20.0817C33.6947 20.0038 33.6532 20.0073 33.6796 19.9132C33.7121 19.7968 33.7237 19.523 33.8095 19.2656C33.8122 19.3759 33.8928 19.6841 33.9186 19.8146C33.9556 20.0018 33.9337 20.0421 34.275 20.1389C34.2426 20.3567 34.0727 20.5786 34.069 20.7762C34.0646 21.0094 34.1257 21.2736 34.1239 21.5192C34.0647 21.4736 34.0249 21.4069 33.977 21.3417C33.9532 21.3093 33.9417 21.2875 33.9078 21.2458L33.808 21.1563L33.5422 21.5107C33.5502 21.3167 33.5989 20.8546 33.5736 20.6945C33.5469 20.5258 33.3842 20.2838 33.3375 20.0817ZM31.7193 19.5312C31.947 19.4145 32.0311 19.5384 32.0781 19.2568C32.1071 19.0827 32.1305 18.8818 32.1939 18.7222L32.3432 19.448L32.6657 19.5748C32.6158 19.7725 32.4542 20.0391 32.4535 20.2196C32.4527 20.4462 32.528 20.7457 32.5024 20.9585C32.4183 20.8595 32.2995 20.6577 32.2126 20.5904C32.1265 20.6971 32.0263 20.8408 31.9311 20.9378C31.9191 19.8963 32.1259 20.5312 31.7193 19.5312ZM30.5418 18.2688C30.5625 18.2042 30.561 18.2193 30.5702 18.2014C30.5743 18.209 30.5784 18.2187 30.581 18.2247L30.6477 18.4787C30.7812 19.1283 30.6965 18.7725 31.0425 19.0262C30.9991 19.213 30.8431 19.4608 30.8381 19.6361C30.8317 19.8616 30.8901 20.149 30.895 20.384C30.7806 20.281 30.7121 20.1205 30.598 20.0289C30.4732 20.1335 30.441 20.2576 30.3167 20.3611C30.3095 20.1505 30.3748 19.6991 30.3379 19.5353C30.2984 19.3603 30.1485 19.1392 30.1076 18.9505L30.4315 18.8595L30.5418 18.2688ZM28.4295 18.3611C28.4945 18.3484 28.6504 18.3135 28.7148 18.2817C28.8722 18.2041 28.8 17.8098 28.9228 17.5019C28.9782 17.6879 29.0162 17.9023 29.0548 18.0994C29.1175 18.4206 29.1991 18.2825 29.4262 18.4428C29.3828 18.6187 29.2135 18.9258 29.208 19.0818C29.1992 19.3291 29.28 19.6263 29.2631 19.8805C29.1507 19.7942 29.0737 19.6057 28.9591 19.5071C28.8745 19.5602 28.8073 19.6947 28.7403 19.7785C28.7342 19.7861 28.7034 19.821 28.6993 19.8252C28.6675 19.8585 28.6824 19.8451 28.6486 19.8718C28.659 19.6873 28.7075 19.1486 28.681 19.0025C28.6487 18.8231 28.4816 18.5635 28.4295 18.3611ZM27.8758 21.9091L41.7426 25.2503L41.7425 26.9546L27.7899 24.8021L27.7889 27.7209L41.7378 28.6687C41.7535 28.8925 41.7658 30.226 41.7258 30.3713L27.7936 30.6302L27.7844 33.4985L27.8912 33.5286L41.7422 32.089L41.743 33.7485C41.7147 33.8322 40.2075 34.0793 40.0212 34.1155C39.4398 34.2284 38.856 34.3362 38.2707 34.4512L31.3018 35.7861C30.3455 35.9706 28.7104 36.2455 27.848 36.451C27.8403 36.4579 27.8299 36.4596 27.8268 36.4738L27.7812 39.1949C27.7845 39.3422 27.7619 39.2909 27.8288 39.3561C27.9916 39.3535 39.4919 36.1276 40.8059 35.7627C41.0817 35.6862 41.3963 35.6143 41.6532 35.5222C41.6968 35.4931 41.5757 35.444 41.7584 35.5042L41.7673 37.1259C42.5255 37.1199 43.0722 37.708 42.9889 38.4985L43.0347 38.5142C43.1923 38.5167 43.3831 38.4219 43.5487 38.3907L43.5351 36.5848L43.5372 32.0496L43.5487 22.521C43.2961 22.4563 42.9352 22.291 42.6798 22.1936C42.5108 22.1291 41.915 21.8741 41.7889 21.8702C41.7058 21.9948 41.7898 23.2659 41.756 23.5459C41.6229 23.531 40.5655 23.1721 40.3313 23.0973L36.7712 21.9631C36.551 21.8938 36.2892 21.7963 36.0611 21.7376L36.1001 21.6963L35.4947 21.4919L35.5233 19.0818C35.4987 18.9902 34.717 18.731 34.584 18.6789L31.6983 17.5647C31.0565 17.3108 30.4184 17.0684 29.7745 16.8215C29.1337 16.576 28.4776 16.2912 27.8355 16.0739C27.7725 16.1279 27.7839 15.9996 27.7845 16.165V21.8595C27.9714 21.8675 27.7996 21.8512 27.8758 21.9091Z" fill="white"/>
<path fill-rule="evenodd" clip-rule="evenodd" d="M27.8146 42.2735C27.7386 42.4198 27.7845 43.4517 27.7845 43.7207C27.7845 43.9321 27.7417 45.0881 27.8108 45.1791C27.9502 45.1679 29.0678 44.6374 29.2967 44.5314C29.5479 44.4153 29.7985 44.3114 30.0452 44.1951C30.251 44.0982 30.5836 43.9306 30.7894 43.8648C31.0507 43.4409 31.111 43.5598 31.0278 43.3211C30.8064 42.6861 31.2286 41.8751 32.1019 41.8393C32.0903 40.5423 33.6318 40.1934 34.2571 41.0606C34.5142 41.4172 34.5002 41.6148 34.4618 42.1039C34.5684 42.1015 34.6049 42.113 34.7083 42.0751C34.8384 42.0538 35.7172 41.6321 35.9211 41.5444C36.3277 41.3693 36.7284 41.1836 37.1286 41.001C37.5264 40.8194 37.9429 40.6434 38.3353 40.4574L39.5456 39.9186C39.4349 39.4675 39.4565 39.1854 39.6958 38.8472C39.8606 38.6143 40.1556 38.3905 40.6009 38.3822C40.6229 38.1847 40.6193 38.0747 40.6875 37.8939C40.725 37.7942 40.8836 37.5574 40.8801 37.5382C40.7081 37.5372 35.0364 39.6553 34.3344 39.9017C33.2331 40.2883 32.1715 40.6891 31.0774 41.089L27.8146 42.2735Z" fill="white"/>
<path fill-rule="evenodd" clip-rule="evenodd" d="M41.7889 21.8702C41.6981 21.7924 40.5125 21.8056 40.403 21.8039C39.92 21.7964 39.4434 21.7811 38.9587 21.7757C38.5051 21.7707 36.381 21.75 36.1001 21.6963L36.0611 21.7376C36.2892 21.7962 36.551 21.8937 36.7712 21.9631L40.3313 23.0973C40.5655 23.1721 41.6229 23.531 41.756 23.5459C41.7898 23.2659 41.7058 21.9948 41.7889 21.8702Z" fill="#F6F6F7"/>
<path fill-rule="evenodd" clip-rule="evenodd" d="M26.867 16.4062L20.0612 19.0482L19.9687 22.0311L26.867 20.3183V16.4062Z" fill="white"/>
<path fill-rule="evenodd" clip-rule="evenodd" d="M27.7845 16.165L34.2351 19.2241L34.2471 22.1265L27.7845 21.1132V16.165Z" fill="white"/>
<path fill-rule="evenodd" clip-rule="evenodd" d="M16.6437 38.3558L22.8557 41.703L27.8108 45.1791L16.6437 42.2678V38.3558Z" fill="white"/>
<path fill-rule="evenodd" clip-rule="evenodd" d="M43.5352 36.4659L29.8912 41.5197L29.4577 44.4584L43.5487 38.3907L43.5352 36.4659Z" fill="white"/>
<path fill-rule="evenodd" clip-rule="evenodd" d="M16.6192 23.4236H19.8294V39.2634H16.6192V23.4236Z" fill="white"/>
<path fill-rule="evenodd" clip-rule="evenodd" d="M52.0616 38.9439L51.6332 40.2182L50.2386 40.2156L51.3684 41.0005L50.9349 42.2732L52.0616 41.484L53.1883 42.2732L52.7548 41.0005L53.8846 40.2156L52.49 40.2182L52.0616 38.9439Z" fill="white"/>
<path fill-rule="evenodd" clip-rule="evenodd" d="M47.8923 44.2552L47.4639 45.5295L46.0693 45.527L47.1991 46.3119L46.7656 47.5845L47.8923 46.7954L49.0191 47.5845L48.5856 46.3119L49.7154 45.527L48.3208 45.5295L47.8923 44.2552Z" fill="white"/>
<path fill-rule="evenodd" clip-rule="evenodd" d="M53.8976 26.1234L53.4691 27.3976L52.0745 27.3951L53.2043 28.18L52.7708 29.4527L53.8976 28.6636L55.0243 29.4527L54.5908 28.18L55.7206 27.3951L54.326 27.3976L53.8976 26.1234Z" fill="white"/>
<path fill-rule="evenodd" clip-rule="evenodd" d="M52.0819 19.2707L51.6535 20.5449L50.2588 20.5424L51.3887 21.3273L50.9551 22.5999L52.0819 21.8108L53.2086 22.5999L52.7751 21.3273L53.9049 20.5424L52.5103 20.5449L52.0819 19.2707Z" fill="white"/>
<path fill-rule="evenodd" clip-rule="evenodd" d="M53.8465 32.8213L53.418 34.0956L52.0234 34.093L53.1533 34.8779L52.7197 36.1506L53.8465 35.3615L54.9732 36.1506L54.5397 34.8779L55.6695 34.093L54.2748 34.0956L53.8465 32.8213Z" fill="white"/>
</svg>
