<svg width="20" height="19" viewBox="0 0 20 19" fill="none" xmlns="http://www.w3.org/2000/svg">
<path fill-rule="evenodd" clip-rule="evenodd" d="M7.30165 2.4918C4.67172 2.4918 2.53974 4.58359 2.53974 7.16393C2.53974 9.74428 4.67172 11.8361 7.30165 11.8361C8.2202 11.8361 9.07801 11.5809 9.80546 11.1388C9.80725 11.1377 9.80906 11.1367 9.81086 11.1356C10.594 10.6582 11.2256 9.96412 11.6185 9.1387C11.621 9.13331 11.6236 9.12793 11.6262 9.12257C11.9069 8.52687 12.0636 7.86335 12.0636 7.16393C12.0636 4.58359 9.93158 2.4918 7.30165 2.4918ZM14.2633 9.33081C14.4841 8.64722 14.6032 7.91923 14.6032 7.16393C14.6032 3.2074 11.3342 0 7.30165 0C3.26909 0 6.10352e-05 3.2074 6.10352e-05 7.16393C6.10352e-05 11.1205 3.26909 14.3279 7.30165 14.3279C8.31794 14.3279 9.28574 14.1241 10.1649 13.7561L10.7937 14.4768V16.6618C10.7937 17.0667 10.9943 17.4464 11.3316 17.6799C11.6689 17.9133 12.1008 17.9713 12.4896 17.8354L13.9555 17.3232L15.2926 18.6351C15.5308 18.8687 15.8538 19 16.1905 19H18.7302C19.4315 19 20.0001 18.4422 20.0001 17.7541V15.2623C20.0001 14.9229 19.859 14.5982 19.6094 14.3633L14.2633 9.33081ZM13.0225 11.616C12.8029 11.8872 12.5638 12.1424 12.3071 12.3796L13.0283 13.2062C13.2252 13.4319 13.3334 13.7193 13.3334 14.0164V14.8955L13.8597 14.7116C14.3216 14.5502 14.837 14.6641 15.1837 15.0043L16.7165 16.5082H17.4604V15.7935L13.0225 11.616Z" fill="url(#paint0_linear_3_169)"/>
<defs>
<linearGradient id="paint0_linear_3_169" x1="-3.61691" y1="-3.8837" x2="18.0925" y2="24.5002" gradientUnits="userSpaceOnUse">
<stop stop-color="#53E88B"/>
<stop offset="1" stop-color="#15BE77"/>
</linearGradient>
</defs>
</svg>
