<svg width="25" height="25" viewBox="0 0 25 25" fill="none" xmlns="http://www.w3.org/2000/svg">
<path d="M12.5 0C5.6 0 0 5.60561 0 12.5125C0 19.3944 5.6 25 12.5 25C19.4 25 25 19.3944 25 12.5125C25 5.60561 19.4 0 12.5 0ZM12.5 24.7497C5.75 24.7497 0.25 19.2442 0.25 12.5125C0.25 5.75576 5.75 0.275275 12.5 0.275275C19.25 0.275275 24.75 5.78078 24.75 12.5125C24.75 19.2693 19.25 24.7497 12.5 24.7497Z" fill="black"/>
<path d="M19.2997 12.3373H6.22472C6.0247 12.3373 6.0247 12.6372 6.22472 12.6372H19.2997C19.4997 12.6372 19.4997 12.3373 19.2997 12.3373Z" fill="black"/>
</svg>
