<svg width="25" height="25" viewBox="0 0 25 25" fill="none" xmlns="http://www.w3.org/2000/svg">
<path d="M12.5 0C5.6 0 0 5.60561 0 12.5125C0 19.3944 5.6 25 12.5 25C19.4 25 25 19.3944 25 12.5125C25 5.60561 19.4 0 12.5 0ZM12.5 24.7497C5.75 24.7497 0.25 19.2442 0.25 12.5125C0.25 5.75576 5.75 0.275275 12.5 0.275275C19.25 0.275275 24.75 5.78078 24.75 12.5125C24.75 19.2693 19.25 24.7497 12.5 24.7497Z" fill="black"/>
<path d="M19.2998 12.3375H12.6498V5.9811C12.6498 5.78088 12.3499 5.78088 12.3499 5.9811V12.3375H6.24987C6.04985 12.3375 6.04985 12.6377 6.24987 12.6377H12.3499V19.0441C12.3499 19.2443 12.6498 19.2443 12.6498 19.0441V12.6377H19.2998C19.4998 12.6377 19.4998 12.3375 19.2998 12.3375Z" fill="black"/>
</svg>
