<svg width="16" height="20" viewBox="0 0 16 20" fill="none" xmlns="http://www.w3.org/2000/svg">
<path d="M7.9968 13.1746C3.6838 13.1746 -0.000198364 13.8546 -0.000198364 16.5746C-0.000198364 19.2956 3.6608 19.9996 7.9968 19.9996C12.3098 19.9996 15.9938 19.3206 15.9938 16.5996C15.9938 13.8786 12.3338 13.1746 7.9968 13.1746Z" fill="url(#paint0_linear_3764_6)"/>
<path opacity="0.4" d="M7.9968 10.5837C10.9348 10.5837 13.2888 8.22869 13.2888 5.29169C13.2888 2.35469 10.9348 -0.000305176 7.9968 -0.000305176C5.0598 -0.000305176 2.7048 2.35469 2.7048 5.29169C2.7048 8.22869 5.0598 10.5837 7.9968 10.5837Z" fill="url(#paint1_linear_3764_6)"/>
<defs>
<linearGradient id="paint0_linear_3764_6" x1="-0.000198387" y1="12.7555" x2="16.7044" y2="18.8207" gradientUnits="userSpaceOnUse">
<stop stop-color="#53E88B"/>
<stop offset="1" stop-color="#15BE77"/>
</linearGradient>
<linearGradient id="paint1_linear_3764_6" x1="2.7048" y1="-0.6502" x2="14.923" y2="1.24284" gradientUnits="userSpaceOnUse">
<stop stop-color="#53E88B"/>
<stop offset="1" stop-color="#15BE77"/>
</linearGradient>
</defs>
</svg>
