<svg width="210" height="191" viewBox="0 0 210 191" fill="none" xmlns="http://www.w3.org/2000/svg">
<path d="M207.613 31.1148C206.295 31.1148 205.227 30.1449 205.227 28.9479V4.33383H178.116C176.798 4.33383 175.729 3.36394 175.729 2.16691C175.729 0.969882 176.798 0 178.116 0H207.613C208.931 0 209.999 0.969882 209.999 2.16691V28.9491C209.999 30.1447 208.932 31.1148 207.613 31.1148Z" fill="white"/>
<path d="M2.38657 31.1147C1.0682 31.1147 0 30.1448 0 28.9478V2.16704C0 0.970004 1.0682 0.00012207 2.38657 0.00012207H31.8835C33.2019 0.00012207 34.2701 0.970004 34.2701 2.16704C34.2701 3.36407 33.2019 4.33395 31.8835 4.33395H4.77287V28.9494C4.77287 30.1451 3.70317 31.115 2.3863 31.115L2.38657 31.1147Z" fill="white"/>
<path d="M31.8855 190.675H2.38852C1.07015 190.675 0.00195312 189.705 0.00195312 188.508V161.726C0.00195312 160.528 1.07015 159.559 2.38852 159.559C3.70689 159.559 4.77508 160.528 4.77508 161.726V186.341H31.8858C33.2041 186.341 34.2723 187.311 34.2723 188.508C34.2708 189.705 33.2024 190.675 31.8855 190.675Z" fill="white"/>
<path d="M207.613 190.675H178.116C176.798 190.675 175.73 189.705 175.73 188.508C175.73 187.311 176.798 186.341 178.116 186.341H205.227V161.725C205.227 160.528 206.295 159.558 207.614 159.558C208.932 159.558 210 160.528 210 161.725V188.507C210 189.704 208.932 190.674 207.614 190.674L207.613 190.675Z" fill="white"/>
</svg>
