<svg width="16" height="16" viewBox="0 0 16 16" fill="none" xmlns="http://www.w3.org/2000/svg">
<path d="M2.66665 2.66665H5.33998V1.33331H1.33331V5.33331H2.66665V2.66665ZM2.66665 10.6666H1.33331V14.6666H5.33998V13.3333H2.66665V10.6666ZM13.3333 13.3333H10.6666V14.6666H14.6666V10.6666H13.3333V13.3333ZM10.6666 2.66665H13.3333V5.33331H14.6666V1.33331H10.6666V2.66665Z" fill="white"/>
<path d="M3.33331 7.33331H7.33331V3.33331H3.33331V7.33331ZM4.66665 4.66665H5.99998V5.99998H4.66665V4.66665ZM3.33331 12.6666H7.33331V8.66665H3.33331V12.6666ZM4.66665 9.99998H5.99998V11.3333H4.66665V9.99998ZM12.6666 3.33331H8.66665V7.33331H12.6666V3.33331ZM11.3333 5.99998H9.99998V4.66665H11.3333V5.99998ZM8.67331 8.66665H10.0066V9.99998H8.67331V8.66665ZM10.0066 9.99998H11.34V11.3333H10.0066V9.99998ZM11.34 11.3333H12.6733V12.6666H11.34V11.3333ZM11.34 8.66665H12.6733V9.99998H11.34V8.66665Z" fill="white"/>
</svg>
