<svg width="20" height="20" viewBox="0 0 20 20" fill="none" xmlns="http://www.w3.org/2000/svg">
<path fill-rule="evenodd" clip-rule="evenodd" d="M10 0C4.48087 0 0 4.48087 0 10C0 15.5191 4.48087 20 10 20C15.5191 20 20 15.5191 20 10C20 4.48087 15.5191 0 10 0ZM9.56003 10.182C9.53628 10.1258 9.52383 10.0639 9.52383 10.0001V4.28583C9.52383 4.02292 9.73724 3.80968 9.99998 3.80968C10.2629 3.80968 10.4761 4.0231 10.4761 4.28583V9.80284L14.3771 13.7038C14.5627 13.8895 14.5627 14.1914 14.3771 14.3771C14.1914 14.5627 13.8894 14.5627 13.7038 14.3771L9.66282 10.3371C9.61797 10.2914 9.58376 10.2389 9.56001 10.1828L9.56003 10.182Z" fill="#949494"/>
</svg>
