<svg width="200" height="200" viewBox="0 0 200 200" fill="none" xmlns="http://www.w3.org/2000/svg">
<path d="M108.397 117.557H91.603V106.87H108.397V117.557Z" fill="#E26B2E"/>
<path d="M157.005 62.439H42.9962C38.6474 62.439 35.1219 65.9602 35.1219 70.3037V78.844V97.8649V138.477C35.1219 142.821 38.6474 146.341 42.9962 146.341H157.005C161.353 146.341 164.878 142.821 164.878 138.477V97.8649V78.844V70.3037C164.878 65.9602 161.353 62.439 157.005 62.439Z" fill="#E26B2E"/>
<path d="M157.005 141.463H42.9962C38.6474 141.463 35.1219 137.983 35.1219 133.691V66.3098C35.1219 62.0168 38.6474 58.5366 42.9962 58.5366H157.005C161.353 58.5366 164.878 62.0168 164.878 66.3098V133.691C164.878 137.983 161.353 141.463 157.005 141.463Z" fill="#58ADDB"/>
<path d="M35.1219 93.6586H164.878V75.122H35.1219V93.6586Z" fill="#233949"/>
<path d="M70.7681 111.219C68.5292 111.219 66.4768 112.063 64.8784 113.465C63.2793 112.063 61.2269 111.219 58.988 111.219C53.8896 111.219 49.7561 115.587 49.7561 120.975C49.7561 126.363 53.8896 130.732 58.988 130.732C61.2269 130.732 63.2793 129.888 64.8784 128.487C66.4768 129.888 68.5292 130.732 70.7681 130.732C75.8665 130.732 80 126.363 80 120.975C80 115.587 75.8665 111.219 70.7681 111.219Z" fill="#F2F4F4"/>
</svg>
