<svg width="200" height="200" viewBox="0 0 200 200" fill="none" xmlns="http://www.w3.org/2000/svg">
<path d="M122.725 81.6214C118.16 81.6214 114.467 77.9229 114.467 73.3606C114.467 70.9345 115.519 68.7589 117.185 67.2478C117.524 68.245 117.829 69.272 118.091 70.3308C118.61 72.4498 120.747 73.7493 122.863 73.2299C124.979 72.7126 126.279 70.5749 125.761 68.4566C125.505 67.4144 125.214 66.3944 124.896 65.3978C128.402 66.3515 130.989 69.5507 130.989 73.3606C130.989 77.9229 127.289 81.6214 122.725 81.6214ZM122.725 53.8064C121.501 53.8064 120.29 53.897 119.108 54.0595C113.243 46.1859 104.675 41.4459 95.2075 41.4459C77.2822 41.4459 62.6971 57.8279 62.6971 77.9651H54.4121C52.4896 77.9651 50.9336 79.5225 50.9336 81.4444V123.222C50.9336 125.143 52.4896 126.701 54.4121 126.701H78.8797C80.8022 126.701 82.3582 125.143 82.3582 123.222V81.4444C82.3582 79.5225 80.8022 77.9651 78.8797 77.9651H70.5947C70.5947 62.1834 81.6321 49.3443 95.2075 49.3443C101.183 49.3443 106.708 52.0152 110.947 56.5879C102.31 60.913 96.3831 69.8363 96.3831 80.1498C96.3831 90.4493 102.296 99.3616 110.913 103.694C110.913 103.695 110.906 103.697 110.906 103.699V155.068L122.725 167.103L134.281 155.68L126.936 146.297L134.281 139.566L126.328 130.795L134.281 123.249L126.328 114.681L134.281 109.378V103.826C143.036 99.5449 149.066 90.5531 149.066 80.1498C149.066 65.6005 137.275 53.8064 122.725 53.8064Z" fill="#367FAA"/>
<path d="M122.725 77.3475C118.16 77.3475 114.461 73.6489 114.461 69.0866C114.461 64.5243 118.16 60.8258 122.725 60.8258C127.289 60.8258 130.989 64.5243 130.989 69.0866C130.989 73.6489 127.289 77.3475 122.725 77.3475ZM122.725 49.5324C108.174 49.5324 96.3831 61.3265 96.3831 75.8758C96.3831 86.1747 102.296 95.0877 110.913 99.4197C110.913 99.4211 110.906 99.4232 110.906 99.4252V150.794L122.725 162.829L134.281 151.406L126.936 142.023L134.281 135.292L126.328 126.521L134.281 118.975L126.328 110.407L134.281 105.104V99.5525C143.036 95.271 149.066 86.2791 149.066 75.8758C149.066 61.3265 137.275 49.5324 122.725 49.5324Z" fill="#ECC631"/>
<path d="M66.6459 77.6401C64.4606 77.6401 62.6971 75.8717 62.6971 73.6905C62.6971 53.554 77.2822 37.172 95.2075 37.172C109.537 37.172 121.819 48.0262 125.761 64.1828C126.279 66.301 124.979 68.4387 122.863 68.956C120.747 69.4754 118.61 68.1759 118.091 66.0562C115.021 53.5042 105.83 45.0705 95.2075 45.0705C81.6321 45.0705 70.5947 57.9095 70.5947 73.6905C70.5947 75.8717 68.8244 77.6401 66.6459 77.6401Z" fill="#233949"/>
<path d="M78.8797 122.427H54.4121C52.4896 122.427 50.9336 120.869 50.9336 118.948V77.1698C50.9336 75.2486 52.4896 73.6905 54.4121 73.6905H78.8797C80.8022 73.6905 82.3582 75.2486 82.3582 77.1698V118.948C82.3582 120.869 80.8022 122.427 78.8797 122.427Z" fill="#F2F4F4"/>
</svg>
