<svg width="200" height="200" viewBox="0 0 200 200" fill="none" xmlns="http://www.w3.org/2000/svg">
<path d="M161.813 127.683C159.727 122.811 154.939 119.652 149.643 119.652H108.343V110.683H150.206C152.404 110.683 154.171 108.824 154.009 106.629C152.062 80.2744 131.273 59.1687 105.07 56.7339V49.6103H109.973C111.642 49.6103 112.995 48.2565 112.995 46.5866V41.1916C112.995 39.5217 111.642 38.168 109.973 38.168H90.0267C88.357 38.168 87.0047 39.5217 87.0047 41.1916V46.5866C87.0047 48.2565 88.357 49.6103 90.0267 49.6103H94.9295V56.7339C68.7272 59.168 47.9383 80.2744 45.9906 106.629C45.8284 108.824 47.5954 110.683 49.7943 110.683H91.6564V119.652H50.3573C45.0605 119.652 40.2729 122.811 38.1872 127.683L34.3511 136.641H165.649L161.813 127.683Z" fill="#797979"/>
<path d="M105.344 53.4351H95.4199V44.2748H105.344V53.4351Z" fill="#E26B2E"/>
<path d="M49.6282 106.87C47.422 106.87 45.6492 104.985 45.8119 102.759C47.8907 74.3242 71.3574 51.9084 100 51.9084C128.643 51.9084 152.109 74.3242 154.188 102.759C154.351 104.985 152.578 106.87 150.372 106.87H49.6282Z" fill="#EDAE2E"/>
<path d="M108.397 117.557H91.603V106.87H108.397V117.557Z" fill="#E26B2E"/>
<path d="M109.96 45.0381H90.0406C88.374 45.0381 87.0229 43.6835 87.0229 42.0124V36.6136C87.0229 34.9425 88.374 33.5878 90.0406 33.5878H109.96C111.626 33.5878 112.977 34.9425 112.977 36.6136V42.0124C112.977 43.6835 111.626 45.0381 109.96 45.0381Z" fill="#EDAE2E"/>
<path d="M165.649 132.824H34.3511L38.1872 123.566C40.2729 118.532 45.0605 115.267 50.3573 115.267H149.643C154.939 115.267 159.727 118.532 161.813 123.566L165.649 132.824Z" fill="#EDAE2E"/>
</svg>
